#!OML:ASF F:\VICON\USERDATA\INSTALL\rory3\rory3.ASF
:FULLY-SPECIFIED
:DEGREES
118
root 0.9106338880027272 18.363447644735245 33.336852278420565 2.4179446740607626 1.6763054649173583 -2.0047726336476366
lfemur -35.37562901713581 -6.862096994665011 -15.733586141816184
ltibia 44.67046667665997
lfoot 3.3758907503574695 -2.507503615661057
ltoes 0.6292304465678242
rfemur -3.7559100443112463 -1.3978186577622975 23.672731704428436
rtibia 22.532353071539283
rfoot 30.132067225680352 -2.625625946082738
rtoes 8.064054287312162
lowerback nan -1.2595159823680597 -0.04748210827633281
upperback -0.6749524192155798 2.7279069820187436 -0.4655661293123925
thorax -6.433960817951706 0.04604214994656908 1.2531277195774813
lowerneck -17.346034283876165 -5.85666403693039 -2.616804142777013
upperneck 11.830676485778685 -6.143848652090787 4.040520180964433
head 6.523115128743675 -3.313600177689038 1.0040633626354092
lclavicle -3.270671890138025e-14 3.262485708714992e-15
lhumerus -63.31075417709412 -3.8961202912533293 89.59352298320145
lradius 108.78645596562427
lwrist 35.335256454846295
lhand -29.55394638055299 8.410358157091004
lfingers nan
lthumb -2.7567042751258635 38.23392919433922
rclavicle -2.873067779756369e-14 2.319772929579853e-15
rhumerus -44.463562495388864 14.284909340254593 -94.56215427962
rradius 130.87112338270902
rwrist -15.545303518906064
rhand -22.721408248020005 nan
rfingers nan
rthumb 3.495254776210156 11.202109698180406
119
root 0.9190751962572669 18.36216737341916 33.38183872901503 2.565077489426018 1.390017883955416 -2.4298153019017175
lfemur -34.137983842419786 -7.379622816817266 -15.313231810723101
ltibia 39.50338789648282
lfoot 1.676964098950994 -1.317313296764703
ltoes -12.087210611546585
rfemur -5.251057740839789 -0.7704129334223273 24.190629432898994
rtibia 24.77588126879403
rfoot 29.679398506339858 -3.3642332921219795
rtoes 9.459008934577332
lowerback nan -1.2217422153213664 0.14906283766333073
upperback -0.6163544917317786 2.8092989246623166 -0.3666893750473661
thorax -6.067500418465091 0.08632545504259803 1.2554111869809081
lowerneck -17.856890918435525 -5.9106905782925825 -2.596963535705182
upperneck 12.281411496532797 -6.176809642880686 3.8923740011556323
head 6.753540258538759 -3.337187430375577 0.9622500134242797
lclavicle 1.9027317234832004e-14 -6.609024122249015e-15
lhumerus -63.41401536268728 -3.6329955256827344 89.36436623260876
lradius 109.5808215048859
lwrist 35.35384744588268
lhand -28.875986746691765 5.890254495644491
lfingers nan
lthumb -2.195569392317041 35.60802634220271
rclavicle 2.268517705453146e-14 -7.479878469625021e-15
rhumerus -44.770985038556624 14.762554118911098 -94.61916347725594
rradius 130.448692332099
rwrist -16.34273386106394
rhand -22.95986290364965 nan
rfingers nan
rthumb 3.348913252698498 14.305761369509879
120
root 0.9143044908490854 18.37621788541269 33.887319296919884 2.757503778358226 0.9842992577107725 -3.180944171517119
lfemur -33.11124610631565 -7.589321698310737 -14.514841794566166
ltibia 34.56156153637565
lfoot 1.8402061165001982 -0.3958880890919101
ltoes -16.344709233293507
rfemur -6.665804772547217 0.014625010363847224 25.136388037670972
rtibia 27.239684599657778
rfoot 28.540106460520903 -4.433654866724537
rtoes 10.362050197730573
lowerback nan -1.180622306548933 0.5232106505658138
upperback -0.6667244489297007 2.923853525595725 -0.16735039296484033
thorax -6.156639032629185 0.13831041063629002 1.2545234436735786
lowerneck -18.11907974982598 -5.870910945061755 -2.4450368588371
upperneck 12.308149322949554 -6.069613927962681 3.6072739270848553
head 6.780021489534097 -3.300671420968958 0.882587913774894
lclavicle 1.6402054913429875e-14 1.9553250168950288e-15
lhumerus -63.55976929526523 -3.33582917314116 89.21561723352629
lradius 110.20217401717586
lwrist 35.17378056312221
lhand -29.048232968210385 6.741037772882274
lfingers nan
lthumb -2.424090043083357 36.40936297017859
rclavicle 2.0078983948726418e-14 9.17067295064533e-16
rhumerus -45.323729996111254 15.217338559127134 -94.8998067397024
rradius 129.94273391195668
rwrist -16.893909951522605
rhand -22.79007720244809 nan
rfingers nan
rthumb 3.5543478942023574 17.289435828984335
121
root 0.8847984862198774 18.37593328857899 34.273754818178425 2.390312918372821 0.464417362800152 -3.093446687014896
lfemur -31.727414825897903 -7.771165595871588 -14.67526489956137
ltibia 30.190982952993537
lfoot 2.8592669779841478 0.28011673706493134
ltoes -18.808012286069673
rfemur -7.5944434175520055 1.1038079985738196 25.379796223196976
rtibia 29.975901988089213
rfoot 27.466072083588287 -5.475959719024917
rtoes 10.323924321910656
lowerback nan -1.065793602319696 0.07101966198726206
upperback -0.788367998955297 3.0107414741619003 -0.12851239706078266
thorax -7.593496241595429 0.18773880414001443 1.324689820441801
lowerneck -18.02539923738801 -5.858286283151456 -2.3768536358435166
upperneck 12.114042414075598 -5.981064020127614 3.569530938756621
head 6.6893603499235095 -3.2802281971273306 0.8754440122710562
lclavicle -7.457543726003967e-14 -2.096337113746804e-17
lhumerus -63.759591465559026 -3.070731960066187 89.09377112936991
lradius 110.83951995478633
lwrist 34.98401147875424
lhand -28.874948604784418 7.219997304725439
lfingers nan
lthumb -2.2677767813480267 36.86906131339876
rclavicle -6.970068684297122e-14 -1.5405518870753785e-16
rhumerus -45.97375612753604 15.591123916607147 -95.40124738436673
rradius 129.30626979799285
rwrist -17.1982728173373
rhand -22.13492743651274 nan
rfingers nan
rthumb 4.212422282716423 19.710987776502428
